:SAMPLES-PER-SECOND 30
:FULLY-SPECIFIED
:DEGREES
303
root  -17.1088 32.8042 3.10596 174.11 36.2487 170.494
RightUpLeg  -39.8333 -4.88242 -32.2504
RightLeg  45.8135 1.6964 1.54493
RightFoot  -6.47157 -0.655074 14.6703
RightToes  -3.0268e-009 0 -3.6325e-017
Spine  33.0439 0.740704 -4.92832
Spine1  8.36953 0.89217 -5.85511
HEad  -33.8873 -25.1141 6.90993
LeftShoulder1  -0.141846 3.89922 -29.7169
LeftArm  15.6389 -18.0328 -55.3518
LeftForeArm  54.9539 -75.2165 -38.5241
LeftHand  -0.0298359 5.05093 1.56011
RightShoulder  -0.887757 -5.86336 31.0117
RightArm  10.0372 -7.75378 43.3739
RightForeArm  10.6703 39.5314 8.57541
RightHand  -0.498846 5.07972 -5.82935
LeftUpLeg  -30.5906 -18.1603 7.01554
LeftLeg  62.3923 -6.90755 -13.4792
LeftFoot  -34.4041 -0.338318 -2.67643
LeftToes  2.52475e-009 -1.26109e-010 3.16044e-011
304
root  -15.222 32.7917 3.58959 175.682 34.6721 170.618
RightUpLeg  -41.9167 -7.16182 -29.4279
RightLeg  50.7939 1.42423 1.51452
RightFoot  -6.95509 -0.612777 14.5726
RightToes  -3.0268e-009 0 -3.6325e-017
Spine  33.1115 0.421835 -3.49992
Spine1  7.49375 1.15831 -6.63552
HEad  -35.5454 -26.4063 8.3459
LeftShoulder1  -0.133842 3.87308 -30.1033
LeftArm  12.6819 -14.9076 -51.2643
LeftForeArm  57.7613 -76.0208 -41.4317
LeftHand  -0.0306969 4.74091 1.00482
RightShoulder  -0.855699 -5.79513 30.7219
RightArm  8.94396 -6.00266 43.5372
RightForeArm  11.7432 41.4357 9.12791
RightHand  -0.563522 4.98202 -6.60189
LeftUpLeg  -30.0437 -20.1908 10.4337
LeftLeg  59.901 -7.28767 -12.8222
LeftFoot  -35.0206 -0.820056 -4.90212
LeftToes  2.52475e-009 -1.26109e-010 3.16044e-011
305
root  -13.3821 32.9551 4.06348 176.867 33.1602 171.365
RightUpLeg  -42.7622 -8.5856 -25.6884
RightLeg  54.6248 1.07134 1.20667
RightFoot  -8.64701 -0.322655 11.1442
RightToes  -3.0268e-009 0 -3.6325e-017
Spine  33.5441 -0.0924581 -1.64023
Spine1  6.91325 1.1499 -6.73382
HEad  -37.1823 -27.5225 9.68193
LeftShoulder1  -0.133383 3.86866 -30.4123
LeftArm  9.57033 -11.6956 -47.0603
LeftForeArm  58.3923 -77.2182 -48.6035
LeftHand  -0.0341487 4.45947 1.42432
RightShoulder  -0.839972 -5.77647 30.3353
RightArm  7.52093 -4.44289 43.4912
RightForeArm  13.36 44.9901 10.2795
RightHand  -0.603182 5.3209 -6.815
LeftUpLeg  -28.5808 -21.7571 13.6487
LeftLeg  56.7689 -6.56282 -10.1788
LeftFoot  -33.8421 -1.45355 -8.47921
LeftToes  2.52475e-009 -1.26109e-010 3.16044e-011
306
root  -11.4901 33.3559 4.57568 178.193 31.6388 172.057
RightUpLeg  -42.6559 -9.71521 -21.7075
RightLeg  56.4097 0.372959 0.171304
RightFoot  -10.9407 -0.104773 8.98799
RightToes  -3.0268e-009 0 -3.6325e-017
Spine  33.5512 -0.109922 -1.14539
Spine1  6.06877 0.953418 -5.62595
HEad  -37.2152 -28.5692 10.9926
LeftShoulder1  -0.10431 3.791 -30.178
LeftArm  6.67172 -8.50224 -44.4479
LeftForeArm  68.2057 -78.7423 -58.9885
LeftHand  -0.0357073 4.57499 1.56274
RightShoulder  -0.834295 -5.76559 30.2597
RightArm  6.78807 -3.24295 42.6194
RightForeArm  15.2584 49.6586 12.0846
RightHand  -0.743571 5.80188 -8.0205
LeftUpLeg  -28.1882 -21.139 16.1582
LeftLeg  54.7305 -3.70512 -5.10048
LeftFoot  -27.4226 -1.46058 -11.0509
LeftToes  2.52475e-009 -1.26109e-010 3.16044e-011
307
root  -9.55268 33.9274 5.10509 178.73 29.1416 171.307
RightUpLeg  -41.5063 -12.3413 -18.9056
RightLeg  56.7565 0.0201334 -0.410196
RightFoot  -13.2059 0.0314127 7.42706
RightToes  -3.0268e-009 0 -3.6325e-017
Spine  33.492 -0.0407953 -2.38401
Spine1  5.0417 0.365413 -4.83027
HEad  -37.2257 -30.0524 12.5378
LeftShoulder1  -0.149088 3.90947 -30.6328
LeftArm  5.0794 -7.1202 -42.4433
LeftForeArm  82.5956 -79.9083 -71.1427
LeftHand  -0.0419212 4.75279 1.63179
RightShoulder  -0.875621 -5.88107 30.2268
RightArm  5.27776 -3.46118 41.3936
RightForeArm  19.3692 55.8096 15.0716
RightHand  -0.662526 5.43879 -7.4035
LeftUpLeg  -29.147 -17.8046 15.5454
LeftLeg  54.1865 1.07232 2.06905
LeftFoot  -16.3805 -0.173429 -5.76176
LeftToes  2.52475e-009 -1.26109e-010 3.16044e-011
308
root  -7.74157 34.6383 5.47165 179.575 26.2236 171.194
RightUpLeg  -39.4171 -14.868 -15.9747
RightLeg  55.5249 -0.647162 -1.4448
RightFoot  -14.379 0.0420243 5.2439
RightToes  -3.0268e-009 0 -3.6325e-017
Spine  32.3975 -0.39496 -2.34695
Spine1  5.10554 -0.142149 -4.39198
HEad  -36.9059 -31.6161 13.2746
LeftShoulder1  -0.147524 3.90328 -30.7806
LeftArm  5.2878 -7.39341 -41.4146
LeftForeArm  92.6602 -80.3191 -81.4156
LeftHand  -0.0425978 4.54407 1.63522
RightShoulder  -0.892232 -5.94067 29.9926
RightArm  3.41332 -5.02779 39.8983
RightForeArm  23.9797 62.8252 20.0523
RightHand  -0.656568 5.04873 -7.59092
LeftUpLeg  -29.9824 -13.8195 13.1878
LeftLeg  53.0795 2.85732 4.61104
LeftFoot  -11.6689 0.0846084 -1.32099
LeftToes  2.52475e-009 -1.26109e-010 3.16044e-011
309
root  -6.0354 35.3674 5.74984 179.987 23.7709 170.971
RightUpLeg  -36.8825 -15.9765 -13.4753
RightLeg  53.4004 -1.83417 -3.03723
RightFoot  -15.0688 0.0127171 3.50919
RightToes  -3.0268e-009 0 -3.6325e-017
Spine  31.5531 -0.414196 -2.81102
Spine1  4.5944 -0.498865 -3.71743
HEad  -35.7032 -33.2537 13.7495
LeftShoulder1  -0.104218 3.79012 -30.2922
LeftArm  6.11957 -7.39311 -41.7402
LeftForeArm  107.098 -80.4117 -95.2067
LeftHand  -0.0367093 4.51589 1.85173
RightShoulder  -1.06169 -6.36664 30.5477
RightArm  2.84252 -6.38509 37.7661
RightForeArm  29.9227 68.447 26.4172
RightHand  -0.601912 4.61032 -7.26356
LeftUpLeg  -29.8462 -9.24431 8.85021
LeftLeg  51.3642 -0.188183 0.179508
LeftFoot  -13.9933 0.0012766 -3.75317
LeftToes  2.52475e-009 -1.26109e-010 3.16044e-011
310
root  -4.37455 36.2353 5.93447 -179.368 21.4529 170.844
RightUpLeg  -33.8632 -16.2072 -11.1086
RightLeg  49.7033 -3.52873 -4.80126
RightFoot  -14.8505 -0.029568 2.23901
RightToes  -3.0268e-009 0 -3.6325e-017
Spine  30.404 -0.246204 -4.26955
Spine1  3.69899 -1.07592 -2.15992
HEad  -33.5817 -34.6499 13.6891
LeftShoulder1  -0.10023 3.78035 -30.1333
LeftArm  7.56364 -7.05557 -42.0256
LeftForeArm  123.915 -79.887 -110.724
LeftHand  -0.0320784 4.41711 1.11149
RightShoulder  -1.05857 -6.38157 30.2391
RightArm  2.69041 -8.16364 36.6606
RightForeArm  37.4362 72.3601 33.4217
RightHand  -0.517424 4.66052 -6.26233
LeftUpLeg  -29.3142 -4.31049 3.32647
LeftLeg  48.5959 0.955132 1.57713
LeftFoot  -15.5848 -0.0461966 -3.71225
LeftToes  2.52475e-009 -1.26109e-010 3.16044e-011
311
root  -2.80416 37.163 6.10405 -178.068 18.7343 171.624
RightUpLeg  -30.8551 -17.0893 -8.21268
RightLeg  44.9664 -4.3997 -5.0287
RightFoot  -13.2373 -0.0569732 2.00089
RightToes  -3.0268e-009 0 -3.6325e-017
Spine  28.9582 -0.38872 -5.4611
Spine1  2.71104 -1.90431 -0.116015
HEad  -30.8033 -35.852 12.7982
LeftShoulder1  -0.0595748 3.66918 -29.7976
LeftArm  9.39684 -6.88218 -42.9605
LeftForeArm  132.077 -79.0399 -120.019
LeftHand  -0.0339195 3.96617 1.08301
RightShoulder  -1.13065 -6.55789 30.4947
RightArm  3.53643 -9.6217 35.649
RightForeArm  42.9752 74.7335 40.1304
RightHand  -0.548891 4.63437 -6.62856
LeftUpLeg  -28.5599 -1.31025 -1.03567
LeftLeg  43.5697 1.20142 1.65738
LeftFoot  -17.1985 -0.166241 -5.27061
LeftToes  2.52475e-009 -1.26109e-010 3.16044e-011
312
root  -1.38115 37.9932 6.20956 -177.089 16.1815 173.254
RightUpLeg  -28.3421 -18.851 -5.35016
RightLeg  41.6612 -2.69824 -2.88529
RightFoot  -10.1199 -0.125893 4.70033
RightToes  -3.0268e-009 0 -3.6325e-017
Spine  27.7692 -0.803545 -5.85243
Spine1  2.1157 -2.82771 2.08313
HEad  -27.6574 -36.5129 12.2651
LeftShoulder1  0.0522463 3.35473 -29.0182
LeftArm  11.4221 -7.1237 -44.1692
LeftForeArm  135.754 -78.4392 -124.598
LeftHand  -0.0320086 4.54311 1.11423
RightShoulder  -1.1497 -6.59456 30.6729
RightArm  4.48347 -10.5754 35.664
RightForeArm  45.6199 75.6769 43.8778
RightHand  -0.607839 5.10861 -7.00762
LeftUpLeg  -26.7359 -1.83663 -3.21921
LeftLeg  37.2681 -1.31519 -0.66251
LeftFoot  -18.6137 -0.349941 -7.20329
LeftToes  2.52475e-009 -1.26109e-010 3.16044e-011
